<?xml version="1.0" encoding="UTF-8" standalone="no"?>
<!-- Created with Inkscape (http://www.inkscape.org/) -->

<svg
   version="1.1"
   id="svg1"
   width="612.27795"
   height="790.32739"
   viewBox="0 0 612.27794 790.32739"
   xmlns="http://www.w3.org/2000/svg"
   xmlns:svg="http://www.w3.org/2000/svg">
  <defs
     id="defs1">
    <clipPath
       clipPathUnits="userSpaceOnUse"
       id="clipPath6">
      <path
         d="M 0,1417.323 H 1984.252 V 0 H 0 Z"
         transform="translate(-1061.5518,-653.52339)"
         id="path6" />
    </clipPath>
    <clipPath
       clipPathUnits="userSpaceOnUse"
       id="clipPath8">
      <path
         d="M 0,1417.323 H 1984.252 V 0 H 0 Z"
         transform="translate(-1061.625,-650.54102)"
         id="path8" />
    </clipPath>
    <clipPath
       clipPathUnits="userSpaceOnUse"
       id="clipPath10">
      <path
         d="M 0,1417.323 H 1984.252 V 0 H 0 Z"
         transform="translate(-1036.7589,-653.52339)"
         id="path10" />
    </clipPath>
    <clipPath
       clipPathUnits="userSpaceOnUse"
       id="clipPath20">
      <path
         d="M 0,1417.323 H 1984.252 V 0 H 0 Z"
         transform="translate(-1096.041,-1123.0537)"
         id="path20" />
    </clipPath>
    <clipPath
       clipPathUnits="userSpaceOnUse"
       id="clipPath22">
      <path
         d="M 0,1417.323 H 1984.252 V 0 H 0 Z"
         transform="translate(-1079.7061,-1083.5703)"
         id="path22" />
    </clipPath>
    <clipPath
       clipPathUnits="userSpaceOnUse"
       id="clipPath24">
      <path
         d="M 0,1417.323 H 1984.252 V 0 H 0 Z"
         transform="translate(-1062.1143,-1057.083)"
         id="path24" />
    </clipPath>
    <clipPath
       clipPathUnits="userSpaceOnUse"
       id="clipPath26">
      <path
         d="M 0,1417.323 H 1984.252 V 0 H 0 Z"
         transform="translate(-1031.8828,-1021.6816)"
         id="path26" />
    </clipPath>
    <clipPath
       clipPathUnits="userSpaceOnUse"
       id="clipPath28">
      <path
         d="M 0,1417.323 H 1984.252 V 0 H 0 Z"
         transform="translate(-1083.4728,-874.23632)"
         id="path28" />
    </clipPath>
  </defs>
  <g
     id="layer-MC0"
     transform="translate(-967.63918,-232.15869)">
    <path
       id="path5"
       d="M 0,0 C 239.559,128.173 55.504,244.918 55.504,244.918 55.504,244.918 193.186,138.234 0,0"
       style="opacity:0.3;fill:#ab1a2f;fill-opacity:1;fill-rule:nonzero;stroke:none"
       transform="matrix(1.3333333,0,0,-1.3333333,1415.8569,1022.4861)"
       clip-path="url(#clipPath6)" />
    <path
       id="path7"
       d="m 0,0 c 0,0 102.231,99.756 -30.458,170.266 -143.654,76.329 -214.969,67.667 -241.581,176.091 -22.402,91.254 40.568,189.275 40.568,189.275 0,0 23.921,-74.303 89.58,-96.139 0,0 -85.401,74.955 -81.25,153.167 0,0 -165.786,-248.436 2.346,-346.955 C -151.988,205.382 -48.361,188.5 10.469,132.441 69.302,76.374 0,0 0,0"
       style="opacity:0.3;fill:#ab1a2f;fill-opacity:1;fill-rule:nonzero;stroke:none"
       transform="matrix(1.3333333,0,0,-1.3333333,1415.5,1022.372)"
       clip-path="url(#clipPath8)" />
    <path
       id="path9"
       d="m -55.68043,60.742288 c 0,0 -14.028427,38.507651 -105.81143,67.260652 -91.773,28.752 -129.33714,66.25406 -132.61014,157.72106 37.313,-87.436 118.532,-70.187 118.532,-70.187 0,0 -100.62,23.627 -125.826,121.501 0,0 -0.265,-0.747 -0.708,-2.151 -4.904,-15.526 -31.506,-111.685 39.569,-175.157 0,0 26.11592,-28.68908 99.67792,-44.28508 23.16597,-6.10688 56.26471,-16.00813 71.356056,-24.913021 19.332037,-11.407178 24.684108,-17.046506 24.684108,-17.046506 0,0 6.215118,-6.367539 11.136486,-12.743105 z"
       style="opacity:0.2;fill:#ab1a2f;fill-opacity:1;fill-rule:nonzero;stroke:none"
       transform="matrix(1.3333333,0,0,-1.3333333,1382.3451,1018.3955)"
       clip-path="url(#clipPath10)" />
    <path
       id="path19"
       d="m 0,0 c 0,0 1.6,-32.725 -34.604,-41.486 0,0 41.147,-6.842 34.604,41.486"
       style="fill:#d4aa00;fill-opacity:1;fill-rule:nonzero;stroke:none"
       transform="matrix(1.3333333,0,0,-1.3333333,1461.388,392.35507)"
       clip-path="url(#clipPath20)" />
    <path
       id="path21"
       d="m 0,0 c 0,0 -3.871,-30.679 -56.273,-27.449 0,0 57.037,-20.805 63.159,31.383 z"
       style="fill:#d4aa00;fill-opacity:1;fill-rule:nonzero;stroke:none"
       transform="matrix(1.3333333,0,0,-1.3333333,1439.6081,444.9996)"
       clip-path="url(#clipPath22)" />
    <path
       id="path23"
       d="m 0,0 c 0,0 1.121,-44.202 -63.236,-30.944 0,0 66.049,-29.038 70.479,33.105 z"
       style="fill:#d4aa00;fill-opacity:1;fill-rule:nonzero;stroke:none"
       transform="matrix(1.3333333,0,0,-1.3333333,1416.1524,480.316)"
       clip-path="url(#clipPath24)" />
    <path
       id="path25"
       d="m 0,0 c 0,0 20.792,-12.861 34.655,-42.383 0,0 -25.279,32.501 -46.841,42.112 z"
       style="fill:#d4aa00;fill-opacity:1;fill-rule:nonzero;stroke:none"
       transform="matrix(1.3333333,0,0,-1.3333333,1375.8437,527.51787)"
       clip-path="url(#clipPath26)" />
    <path
       id="path27"
       d="m 0,0 c 19.516,49.737 -32.863,73.168 -32.863,73.168 0,0 -19.158,9.602 -68.394,33.882 -49.215,24.284 -52.504,55.385 -58.431,67.475 -5.934,12.093 -18.193,17.746 -18.193,17.746 0,0 11.783,7.287 22.656,5.75 10.874,-1.535 15.465,-8.583 19.005,-10.653 3.539,-2.066 18.162,-10.965 36.23,-1.83 18.071,9.133 18.406,14.214 27.873,20.263 9.471,6.051 22.041,6.369 30.841,7.467 8.803,1.096 20.738,6.518 45.213,27.271 l 8.631,8.278 c -11.8,-9.823 -39.876,-26.91 -52.923,-29.921 -13.048,-3.016 -15.384,-2.589 -26.174,-5.628 -10.793,-3.041 -19.581,-12.931 -19.581,-12.931 -8.164,-7.27 -16.078,-9.941 -16.078,-9.941 -21.517,-7.958 -29.547,-0.659 -39.629,6.391 -10.086,7.052 -14.684,6.258 -14.684,6.258 -10.335,0.27 -28.994,-10.674 -28.994,-10.674 0,0 16.679,-10.232 19.492,-20.482 2.81,-10.246 5.606,-43.1 56.597,-70.591 0,0 35.223,-19.11 62.676,-30.564 C -19.275,59.28 7.12,47.97 0.232,0.604"
       style="fill:#d4aa00;fill-opacity:1;fill-rule:nonzero;stroke:none"
       transform="matrix(1.3333333,0,0,-1.3333333,1444.6303,724.1116)"
       clip-path="url(#clipPath28)" />
  </g>
</svg>
