<?xml version="1.0" encoding="utf-8"?>
<svg viewBox="1053.2000732421875 48.9000129699707 179.0001220703125 67" width="179.0001220703125" height="67" xmlns="http://www.w3.org/2000/svg"><g transform="matrix(1, 0, 0, 1, 5.684341886080802e-14, 0)">
		<path class="st1" d="M1192.2,73c0,0,0.4,0,1.3-0.1c0.4,0,1-0.1,1.6-0.1c0.6,0,1.4,0,2.3,0.1c1.7,0.2,3.9,0.6,6,2.1&#10;&#9;&#9;&#9;c1,0.7,2,1.7,2.8,3c0.7,1.3,1.2,2.8,1.4,4.4c0.4,3.3-0.6,7.1-3.1,10.3c-1.3,1.6-3,3-5,3.9c-2,0.9-4.4,1.2-6.8,0.9&#10;&#9;&#9;&#9;c-2.4-0.3-4.7-1.1-7-2.3c-2.2-1.2-4.3-2.7-6.3-4.5c-1.9-1.9-3.6-4.2-4.7-6.8c-1.1-2.7-1.6-5.7-1.2-8.7c0.7-6.1,4.2-11.8,9.2-16.1&#10;&#9;&#9;&#9;c5-4.2,11.6-7.1,18.8-7.1c3.6,0,7.2,0.8,10.6,2.3c3.4,1.4,6.6,3.4,9.4,5.9c2.8,2.5,5.2,5.6,7,9.1c1.8,3.5,3,7.3,3.3,11.4&#10;&#9;&#9;&#9;c0.4,4,0,8.1-1.2,12.1c-1.3,3.9-3.3,7.7-6.1,10.9c-5.5,6.4-13.6,10.7-22.3,11.7c-4.4,0.5-8.8,0.1-13.1-1&#10;&#9;&#9;&#9;c-4.3-1.1-8.4-2.8-12.3-4.9c-7.8-4.2-14.8-9.7-21.5-15.6c-6.7-5.9-13-12.1-19.2-18c-6.2-5.9-12.4-11.8-19.1-16.4&#10;&#9;&#9;&#9;c-6.6-4.7-14.5-6.9-22.3-7.4c-3.9-0.3-7.8,0-11.5,0.8c-3.7,0.7-7.3,1.9-10.6,3.7c-3.2,1.7-6.2,3.9-8.6,6.6c-2.4,2.6-4.3,5.7-5.6,9&#10;&#9;&#9;&#9;c-2.6,6.5-2.9,13.7-1.1,20c1.7,6.4,5.6,11.9,10.6,15.3c2.5,1.7,5.3,2.9,8.2,3.6c2.8,0.7,5.8,1,8.5,0.7c2.7-0.3,5.2-1.5,7.2-3.3&#10;&#9;&#9;&#9;c2-1.7,3.5-3.9,4.4-6.3c1.9-4.7,1.7-9.9-0.3-13.8c-0.9-2-2.4-3.6-4.2-4.6c-1.8-1-3.8-1.5-5.7-1.6c-3.8-0.2-7.5,1.1-9.7,3.3&#10;&#9;&#9;&#9;c-1.1,1.1-1.8,2.5-2,3.9c-0.2,1.4,0,2.7,0.3,3.9c0.1,0.3,0.2,0.6,0.3,0.9c0.1,0.3,0.3,0.5,0.4,0.8c0.2,0.5,0.6,0.9,0.9,1.4&#10;&#9;&#9;&#9;c0.3,0.4,0.7,0.7,1.1,1c0.4,0.2,0.8,0.5,1.2,0.6c1.6,0.7,3,0.4,3.8,0.3c0.8-0.2,1.3-0.3,1.3-0.3s-0.4,0.1-1.3,0.4&#10;&#9;&#9;&#9;c-0.8,0.1-2.2,0.4-3.9-0.2c-0.4-0.2-0.8-0.4-1.2-0.6c-0.4-0.3-0.8-0.6-1.1-1c-0.3-0.4-0.7-0.8-0.9-1.4c-0.1-0.3-0.3-0.5-0.4-0.8&#10;&#9;&#9;&#9;c-0.1-0.3-0.2-0.6-0.3-0.9c-0.4-1.2-0.6-2.6-0.4-4.1c0.2-1.5,0.9-3,2-4.2c2.3-2.5,6-3.9,10.1-3.8c2,0.1,4.2,0.5,6.1,1.6&#10;&#9;&#9;&#9;c2,1,3.7,2.8,4.7,5c2.3,4.2,2.6,9.8,0.7,14.8c-1,2.5-2.5,5-4.7,6.9c-2.2,1.9-5,3.3-8,3.8c-1.5,0.2-3.1,0.2-4.6,0.1&#10;&#9;&#9;&#9;c-0.8,0-1.5-0.2-2.3-0.3c-0.8-0.1-1.5-0.3-2.3-0.4c-3.1-0.7-6.1-1.9-8.9-3.7c-2.8-1.8-5.2-4.2-7.2-7c-2-2.8-3.5-6-4.5-9.4&#10;&#9;&#9;&#9;c-2-6.8-1.8-14.5,0.9-21.6c1.4-3.5,3.4-6.9,6-9.8c2.6-2.9,5.8-5.4,9.3-7.3c3.5-2,7.4-3.2,11.3-4c4-0.8,8.1-1.2,12.2-0.9&#10;&#9;&#9;&#9;c4.1,0.2,8.3,0.9,12.4,2.2c4.1,1.2,8,3.2,11.5,5.6c3.6,2.4,6.9,5.1,10.1,7.9c3.2,2.8,6.4,5.8,9.5,8.7c6.3,6,12.5,12.1,19.1,17.9&#10;&#9;&#9;&#9;c6.6,5.8,13.5,11.2,20.9,15.2c3.7,2,7.6,3.6,11.5,4.7c4,1,8,1.4,12,1c4-0.4,7.8-1.6,11.3-3.4c3.5-1.8,6.6-4.2,9.1-7.1&#10;&#9;&#9;&#9;c2.5-2.9,4.4-6.2,5.6-9.8c1.1-3.6,1.6-7.3,1.2-11c-0.3-3.7-1.4-7.2-2.9-10.4c-1.6-3.2-3.8-6-6.4-8.4c-2.6-2.4-5.5-4.2-8.6-5.6&#10;&#9;&#9;&#9;c-3.1-1.4-6.4-2.2-9.6-2.2c-13.2-0.1-24.8,10-26.3,21c-0.4,2.8,0,5.5,1,8c1,2.5,2.5,4.6,4.3,6.4c3.7,3.5,8.1,6.1,12.5,6.7&#10;&#9;&#9;&#9;c2.2,0.3,4.4,0.1,6.3-0.7c1.9-0.8,3.5-2,4.8-3.5c2.4-3,3.5-6.7,3.2-9.8c-0.1-1.6-0.6-3-1.3-4.3c-0.7-1.2-1.6-2.2-2.6-3&#10;&#9;&#9;&#9;c-2-1.5-4.1-2-5.8-2.2c-0.8-0.2-1.6-0.1-2.2-0.2c-0.6,0-1.2,0-1.6,0.1C1192.7,73,1192.2,73,1192.2,73z" style="fill: rgb(204, 204, 204); opacity: 1;"/>
	</g></svg>