<?xml version="1.0" encoding="utf-8"?>
<svg viewBox="120.10001373291016 149.89999389648438 1036.9000244140625 305.1000061035156" width="1036.9000244140625" height="305.1000061035156" xmlns="http://www.w3.org/2000/svg"><path class="st1" d="M159.1,352c-39-74.4,57.1-117.3,100-49c42.9,68.4-38.3,97.4-52.2,36.7c-10.2-44.6,28.8-189.8,189-189.8&#10;&#9;c132.7,0,167.6,110.2,137.7,195.9c-24.7,71-118.6,103.4-190.8,64.3c-76.4-41.4-79.4-191.7,44.5-206.6&#10;&#9;c103.5-12.4,135.2,120.5,85.4,165.3c-45.3,40.7-126.3,23.3-138-49.5c-13.5-83.8,99.1-102.9,117.3-15.3c12.3,59.2-58.3,67.6-72,19.4&#10;&#9;c-16.3-57.3,41.2-125.5,156.8-108.3c124.2,18.4,165.2,197.1,90.7,218.5c-74.5,21.4-54.1-178.6,48-170.4&#10;&#9;c102,8.2,82.6,169.5,189.8,172c107.1,2.5,76.3-164.9,14.3-142.6c-50.8,18.3-9.7,146,94.9,103.3C1025,375.2,1079,281.3,1157,292.6" style="fill: none; stroke: rgb(204, 204, 204); stroke-width: 10; stroke-miterlimit: 10; stroke-opacity: 1;" transform="matrix(1, 0, 0, 1, 1.1368683772161603e-13, 5.684341886080802e-14)"/></svg>