<?xml version="1.0" encoding="UTF-8" standalone="no"?>
<!-- Created with Inkscape (http://www.inkscape.org/) -->

<svg
   version="1.1"
   id="svg1"
   width="1000.0423"
   height="1068.8707"
   viewBox="0 0 1000.0423 1068.8707"
   xmlns="http://www.w3.org/2000/svg"
   xmlns:svg="http://www.w3.org/2000/svg">
  <defs
     id="defs1">
    <clipPath
       clipPathUnits="userSpaceOnUse"
       id="clipPath2">
      <path
         d="M 0,1417.323 H 1984.252 V 0 H 0 Z"
         transform="translate(-1072.1319,-573.65821)"
         id="path2" />
    </clipPath>
    <clipPath
       clipPathUnits="userSpaceOnUse"
       id="clipPath4">
      <path
         d="M 0,1417.323 H 1984.252 V 0 H 0 Z"
         transform="translate(-1341.6681,-483.94344)"
         id="path4" />
    </clipPath>
    <clipPath
       clipPathUnits="userSpaceOnUse"
       id="clipPath6">
      <path
         d="M 0,1417.323 H 1984.252 V 0 H 0 Z"
         transform="translate(-1061.5518,-653.52339)"
         id="path6" />
    </clipPath>
    <clipPath
       clipPathUnits="userSpaceOnUse"
       id="clipPath8">
      <path
         d="M 0,1417.323 H 1984.252 V 0 H 0 Z"
         transform="translate(-1061.625,-650.54102)"
         id="path8" />
    </clipPath>
    <clipPath
       clipPathUnits="userSpaceOnUse"
       id="clipPath10">
      <path
         d="M 0,1417.323 H 1984.252 V 0 H 0 Z"
         transform="translate(-1036.7589,-653.52339)"
         id="path10" />
    </clipPath>
    <clipPath
       clipPathUnits="userSpaceOnUse"
       id="clipPath12">
      <path
         d="M 0,1417.323 H 1984.252 V 0 H 0 Z"
         transform="translate(-990.84962,-1066.0498)"
         id="path12" />
    </clipPath>
    <clipPath
       clipPathUnits="userSpaceOnUse"
       id="clipPath14">
      <path
         d="M 0,1417.323 H 1984.252 V 0 H 0 Z"
         transform="translate(-926.3242,-1023.7441)"
         id="path14" />
    </clipPath>
    <clipPath
       clipPathUnits="userSpaceOnUse"
       id="clipPath16">
      <path
         d="M 0,1417.323 H 1984.252 V 0 H 0 Z"
         transform="translate(-981.61525,-977.54592)"
         id="path16" />
    </clipPath>
    <clipPath
       clipPathUnits="userSpaceOnUse"
       id="clipPath18">
      <path
         d="M 0,1417.323 H 1984.252 V 0 H 0 Z"
         transform="translate(-1060.7091,-1040.5645)"
         id="path18" />
    </clipPath>
    <clipPath
       clipPathUnits="userSpaceOnUse"
       id="clipPath20">
      <path
         d="M 0,1417.323 H 1984.252 V 0 H 0 Z"
         transform="translate(-1096.041,-1123.0537)"
         id="path20" />
    </clipPath>
    <clipPath
       clipPathUnits="userSpaceOnUse"
       id="clipPath22">
      <path
         d="M 0,1417.323 H 1984.252 V 0 H 0 Z"
         transform="translate(-1079.7061,-1083.5703)"
         id="path22" />
    </clipPath>
    <clipPath
       clipPathUnits="userSpaceOnUse"
       id="clipPath24">
      <path
         d="M 0,1417.323 H 1984.252 V 0 H 0 Z"
         transform="translate(-1062.1143,-1057.083)"
         id="path24" />
    </clipPath>
    <clipPath
       clipPathUnits="userSpaceOnUse"
       id="clipPath26">
      <path
         d="M 0,1417.323 H 1984.252 V 0 H 0 Z"
         transform="translate(-1031.8828,-1021.6816)"
         id="path26" />
    </clipPath>
    <clipPath
       clipPathUnits="userSpaceOnUse"
       id="clipPath28">
      <path
         d="M 0,1417.323 H 1984.252 V 0 H 0 Z"
         transform="translate(-1083.4728,-874.23632)"
         id="path28" />
    </clipPath>
  </defs>
  <g
     id="layer-MC0"
     transform="translate(-822.81347,-232.15869)">
    <path
       id="path1"
       d="m 0,0 h -40.188 v 43.644 c 0,0 6.834,30.066 20.096,31.947 -0.43,0.065 -0.864,0.093 -1.304,0.093 h 2.616 c -0.446,0 -0.882,-0.028 -1.312,-0.093 C -6.823,73.71 0,43.644 0,43.644 Z m 36.992,83.331 -90.305,141.852 h -42.958 l -58.202,-126.904 -0.207,-61.254 -74.787,102.267 -21.36,-6.461 -56.806,-127.737 -15.874,-0.8 -34.019,-56.692 c 0,0 40.185,-9.862 88.099,5.387 109.718,34.923 152.375,6.245 177.773,-35.714 h 23.297 c 25.397,41.959 68.05,70.637 177.77,35.714 47.916,-15.249 88.097,-5.387 88.097,-5.387 L 169.635,-6.564 151.043,-8.346 100.323,61.09 84.398,56.064 37.089,-2.921 Z"
       style="fill:#ab1a2f;fill-opacity:1;fill-rule:nonzero;stroke:none"
       transform="matrix(1.3333333,0,0,-1.3333333,1429.5091,1124.8824)"
       clip-path="url(#clipPath2)" />
    <path
       id="path3"
       d="m 0,0 c -61.74,-24.586 -108.738,-11.361 -195.326,13.968 -80.84,23.641 -126.707,-22.73 -126.707,-22.73 0,0 41.576,58.81 155.699,19.334 0,0 101.841,-34.433 160.688,-7.64 l -16.405,19.809 c -52.956,-32.869 -111.959,-11.073 -177.381,7.304 -74.816,21.013 -112.964,-13.449 -112.964,-13.449 0,0 25.585,29.702 82.039,23.943 55.401,-5.656 136.541,-53.056 203.439,-15.625 0,0 -15.394,15.368 -16.151,15.849 -0.58,0.373 -0.955,-0.064 -0.955,-0.064 -1.569,-1.05 -3.193,-2.009 -4.856,-2.888 -5.268,-2.796 -10.919,-4.87 -16.665,-6.448 -8.813,-2.424 -17.929,-3.672 -27.042,-4.16 -12.926,-0.692 -25.908,0.164 -38.712,1.942 -15.429,2.141 -30.661,5.663 -45.612,10.017 C -277.939,68.604 -317.494,33.16 -335.265,2.201 h -28.554 c -17.767,30.959 -57.333,66.403 -158.36,36.961 -14.951,-4.354 -30.175,-7.876 -45.608,-10.017 -12.808,-1.778 -25.786,-2.634 -38.71,-1.942 -9.119,0.488 -18.232,1.736 -27.045,4.16 -5.747,1.578 -11.394,3.652 -16.664,6.448 -1.667,0.879 -3.289,1.838 -4.854,2.888 0,0 -0.382,0.437 -0.962,0.064 -0.756,-0.481 -16.15,-15.849 -16.15,-15.849 66.899,-37.431 148.038,9.969 203.443,15.625 56.458,5.759 82.041,-23.943 82.041,-23.943 0,0 -38.152,34.462 -112.97,13.449 -65.424,-18.377 -124.423,-40.173 -177.381,-7.304 L -693.438,2.932 c 58.845,-26.793 160.684,7.64 160.684,7.64 114.127,39.476 155.699,-19.334 155.699,-19.334 0,0 -45.863,46.371 -126.707,22.73 C -590.35,-11.361 -637.348,-24.586 -699.089,0 c -13.588,-15.522 -25.59,-29.524 -25.468,-30.355 0.109,-0.718 1.178,-0.694 1.178,-0.694 92.17,-25.083 170.64,-3.199 240.324,13.997 81.438,20.095 110.016,-13.997 110.016,-13.997 h 46.988 c 0,0 28.578,34.092 110.022,13.997 69.676,-17.196 148.154,-39.08 240.32,-13.997 0,0 1.073,-0.024 1.182,0.694 C 25.591,-29.524 13.593,-15.522 0,0"
       style="fill:#ab1a2f;fill-opacity:1;fill-rule:nonzero;stroke:none"
       transform="matrix(1.3333333,0,0,-1.3333333,1788.8907,1244.5021)"
       clip-path="url(#clipPath4)" />
    <path
       id="path5"
       d="M 0,0 C 239.559,128.173 55.504,244.918 55.504,244.918 55.504,244.918 193.186,138.234 0,0"
       style="fill:#ab1a2f;fill-opacity:1;fill-rule:nonzero;stroke:none"
       transform="matrix(1.3333333,0,0,-1.3333333,1415.4024,1018.3955)"
       clip-path="url(#clipPath6)" />
    <path
       id="path7"
       d="m 0,0 c 0,0 102.231,99.756 -30.458,170.266 -143.654,76.329 -214.969,67.667 -241.581,176.091 -22.402,91.254 40.568,189.275 40.568,189.275 0,0 23.921,-74.303 89.58,-96.139 0,0 -85.401,74.955 -81.25,153.167 0,0 -165.786,-248.436 2.346,-346.955 C -151.988,205.382 -48.361,188.5 10.469,132.441 69.302,76.374 0,0 0,0"
       style="fill:#ab1a2f;fill-opacity:1;fill-rule:nonzero;stroke:none"
       transform="matrix(1.3333333,0,0,-1.3333333,1415.5,1022.372)"
       clip-path="url(#clipPath8)" />
    <path
       id="path9"
       d="m 0,0 c 0,0 -64.647,93.706 -156.43,122.459 -91.773,28.752 -134.399,71.798 -137.672,163.265 37.313,-87.436 118.532,-70.187 118.532,-70.187 0,0 -100.62,23.627 -125.826,121.501 0,0 -0.265,-0.747 -0.708,-2.151 -4.904,-15.526 -31.506,-111.685 39.569,-175.157 0,0 26.598,-28.207 100.16,-43.803 64.41,-13.66 150.807,-86.636 150.807,-86.636 z"
       style="fill:#ab1a2f;fill-opacity:1;fill-rule:nonzero;stroke:none"
       transform="matrix(1.3333333,0,0,-1.3333333,1382.3451,1018.3955)"
       clip-path="url(#clipPath10)" />
    <path
       id="path11"
       d="m 0,0 20.533,16.354 2.058,0.599 V 92.708 H -9.565 V -3.261 Z"
       style="fill:#ab1a2f;fill-opacity:1;fill-rule:nonzero;stroke:none"
       transform="matrix(1.3333333,0,0,-1.3333333,1321.1328,468.36027)"
       clip-path="url(#clipPath12)" />
    <path
       id="path13"
       d="M 0,0 -1.837,16.82 H -65.41 v -32.156 h 77.88 z"
       style="fill:#ab1a2f;fill-opacity:1;fill-rule:nonzero;stroke:none"
       transform="matrix(1.3333333,0,0,-1.3333333,1235.0989,524.76787)"
       clip-path="url(#clipPath14)" />
    <path
       id="path15"
       d="M 0,0 -0.331,0.224 V -178.968 H 31.825 V -16.897 Z"
       style="fill:#ab1a2f;fill-opacity:1;fill-rule:nonzero;stroke:none"
       transform="matrix(1.3333333,0,0,-1.3333333,1308.8203,586.36547)"
       clip-path="url(#clipPath16)" />
    <path
       id="path17"
       d="m 0,0 -4.496,-6.717 -12.77,-8.847 -13.637,-3.374 12.996,-13.218 H 73.1 V 0 Z"
       style="fill:#ab1a2f;fill-opacity:1;fill-rule:nonzero;stroke:none"
       transform="matrix(1.3333333,0,0,-1.3333333,1414.2787,502.34067)"
       clip-path="url(#clipPath18)" />
    <path
       id="path19"
       d="m 0,0 c 0,0 1.6,-32.725 -34.604,-41.486 0,0 41.147,-6.842 34.604,41.486"
       style="fill:#ab1a2f;fill-opacity:1;fill-rule:nonzero;stroke:none"
       transform="matrix(1.3333333,0,0,-1.3333333,1461.388,392.35507)"
       clip-path="url(#clipPath20)" />
    <path
       id="path21"
       d="m 0,0 c 0,0 -3.871,-30.679 -56.273,-27.449 0,0 57.037,-20.805 63.159,31.383 z"
       style="fill:#ab1a2f;fill-opacity:1;fill-rule:nonzero;stroke:none"
       transform="matrix(1.3333333,0,0,-1.3333333,1439.6081,444.9996)"
       clip-path="url(#clipPath22)" />
    <path
       id="path23"
       d="m 0,0 c 0,0 1.121,-44.202 -63.236,-30.944 0,0 66.049,-29.038 70.479,33.105 z"
       style="fill:#ab1a2f;fill-opacity:1;fill-rule:nonzero;stroke:none"
       transform="matrix(1.3333333,0,0,-1.3333333,1416.1524,480.316)"
       clip-path="url(#clipPath24)" />
    <path
       id="path25"
       d="m 0,0 c 0,0 20.792,-12.861 34.655,-42.383 0,0 -25.279,32.501 -46.841,42.112 z"
       style="fill:#ab1a2f;fill-opacity:1;fill-rule:nonzero;stroke:none"
       transform="matrix(1.3333333,0,0,-1.3333333,1375.8437,527.51787)"
       clip-path="url(#clipPath26)" />
    <path
       id="path27"
       d="m 0,0 c 19.516,49.737 -32.863,73.168 -32.863,73.168 0,0 -19.158,9.602 -68.394,33.882 -49.215,24.284 -52.504,55.385 -58.431,67.475 -5.934,12.093 -18.193,17.746 -18.193,17.746 0,0 11.783,7.287 22.656,5.75 10.874,-1.535 15.465,-8.583 19.005,-10.653 3.539,-2.066 18.162,-10.965 36.23,-1.83 18.071,9.133 18.406,14.214 27.873,20.263 9.471,6.051 22.041,6.369 30.841,7.467 8.803,1.096 20.738,6.518 45.213,27.271 l 8.631,8.278 c -11.8,-9.823 -39.876,-26.91 -52.923,-29.921 -13.048,-3.016 -15.384,-2.589 -26.174,-5.628 -10.793,-3.041 -19.581,-12.931 -19.581,-12.931 -8.164,-7.27 -16.078,-9.941 -16.078,-9.941 -21.517,-7.958 -29.547,-0.659 -39.629,6.391 -10.086,7.052 -14.684,6.258 -14.684,6.258 -10.335,0.27 -28.994,-10.674 -28.994,-10.674 0,0 16.679,-10.232 19.492,-20.482 2.81,-10.246 5.606,-43.1 56.597,-70.591 0,0 35.223,-19.11 62.676,-30.564 C -19.275,59.28 7.12,47.97 0.232,0.604"
       style="fill:#ab1a2f;fill-opacity:1;fill-rule:nonzero;stroke:none"
       transform="matrix(1.3333333,0,0,-1.3333333,1444.6303,724.1116)"
       clip-path="url(#clipPath28)" />
  </g>
</svg>
