<svg xmlns="http://www.w3.org/2000/svg" style="display:none">
  <symbol id="mission_1" viewBox="0 0 32 32"><path fill="currentColor" d="M9 4C7.355 4 6 5.355 6 7v18c0 1.645 1.355 3 3 3h17V4zm0 2h15v16H9a3 3 0 0 0-1 .188V7c0-.566.434-1 1-1m6 2v3h-3v2h3v7h2v-7h3v-2h-3V8zM9 24h15v2H9c-.566 0-1-.434-1-1s.434-1 1-1"/>
</symbol>

  <symbol id="mission_2" viewBox="0 0 24 24">
<path fill="none" stroke="currentColor" stroke-linecap="round" stroke-linejoin="round" stroke-width="1.2" d="M12 21v-4m0-4V9m0-4V3m-2 18h4M8 5v4h11l2-2l-2-2zm6 8v4H6l-2-2l2-2z"/>
  </symbol>

  <symbol id="mission_3" viewBox="0 0 640 512">
<path fill="currentColor" d="M40 64c22.1 0 40 17.9 40 40v160.2c0 17 6.7 33.3 18.7 45.3l51.1 51.1c8.3 8.3 21.3 9.6 31 3.1c12.9-8.6 14.7-26.9 3.7-37.8l-15.2-15.2l-32-32c-12.5-12.5-12.5-32.8 0-45.3s32.8-12.5 45.3 0l32 32l15.2 15.2l25.3 25.3c21 21 32.8 49.5 32.8 79.2V464c0 26.5-21.5 48-48 48h-66.7c-17 0-33.3-6.7-45.3-18.7l-99.8-99.9C10.1 375.4 0 351 0 325.5V104c0-22.1 17.9-40 40-40m560 0c22.1 0 40 17.9 40 40v221.5c0 25.5-10.1 49.9-28.1 67.9L512 493.3c-12 12-28.3 18.7-45.3 18.7H400c-26.5 0-48-21.5-48-48v-78.9c0-29.7 11.8-58.2 32.8-79.2l25.3-25.3l15.2-15.2l32-32c12.5-12.5 32.8-12.5 45.3 0s12.5 32.8 0 45.3l-32 32l-15.2 15.2c-11 11-9.2 29.2 3.7 37.8c9.7 6.5 22.7 5.2 31-3.1l51.1-51.1c12-12 18.7-28.3 18.7-45.3V104c0-22.1 17.9-40 40-40z"/>
  </symbol>

  <symbol id="mission_4" viewBox="0 0 256 256">
<path fill="currentColor" stroke-width="3.5" stroke="currentColor" d="M227.9 144.24a20.45 20.45 0 0 0-17.84-3.53l-11.95 2.75C223.26 121.88 236 100.58 236 80c0-24.26-19.5-44-43.46-44A43.41 43.41 0 0 0 156 55.44A43.41 43.41 0 0 0 119.46 36C95.5 36 76 55.74 76 80c0 11.85 4.11 23.44 12.81 36a27.8 27.8 0 0 0-18.67 8.17L46.34 148H16a12 12 0 0 0-12 12v40a12 12 0 0 0 12 12h104a4 4 0 0 0 1-.12l64-16a5 5 0 0 0 .6-.2l38.82-16.54l.22-.1a20.6 20.6 0 0 0 3.29-34.8ZM119.46 44a35.15 35.15 0 0 1 32.84 21.52a4 4 0 0 0 7.4 0A35.15 35.15 0 0 1 192.54 44C211.76 44 228 60.49 228 80c0 21.27-16.13 44-47.94 67.61L160.75 152a23.76 23.76 0 0 0 3.25-12a24 24 0 0 0-24-24H98.69C88.69 103 84 91.5 84 80c0-19.51 16.24-36 35.46-36M12 200v-40a4 4 0 0 1 4-4h28v48H16a4 4 0 0 1-4-4m209.13-28.17l-38.41 16.37l-63.21 15.8H52v-50.34l23.8-23.8A19.86 19.86 0 0 1 89.94 124H140a16 16 0 0 1 0 32h-28a4 4 0 0 0 0 8h32a4 4 0 0 0 .9-.1l67-15.41h.16a12.6 12.6 0 0 1 9 23.38Z"/>
  </symbol>

  <symbol id="mission_5" viewBox="0 0 16 16">
<g fill="currentColor"><path d="M8 6.982C9.664 5.309 13.825 8.236 8 12C2.175 8.236 6.336 5.309 8 6.982"/><path d="M8.707 1.5a1 1 0 0 0-1.414 0L.646 8.146a.5.5 0 0 0 .708.707L2 8.207V13.5A1.5 1.5 0 0 0 3.5 15h9a1.5 1.5 0 0 0 1.5-1.5V8.207l.646.646a.5.5 0 0 0 .708-.707L13 5.793V2.5a.5.5 0 0 0-.5-.5h-1a.5.5 0 0 0-.5.5v1.293zM13 7.207V13.5a.5.5 0 0 1-.5.5h-9a.5.5 0 0 1-.5-.5V7.207l5-5z"/></g>
  </symbol>

  <symbol id="vision_1" viewBox="0 0 32 32">
<path fill="currentColor" d="M26 13a4.005 4.005 0 0 0 4-4V6h-3a3.98 3.98 0 0 0-2.747 1.106A6 6 0 0 0 19 4h-3v3a6.007 6.007 0 0 0 6 6h1v13H11v-5h1a4.005 4.005 0 0 0 4-4v-3h-3a3.98 3.98 0 0 0-2.747 1.106A6 6 0 0 0 5 12H2v3a6.007 6.007 0 0 0 6 6h1v5H2v2h28v-2h-5V13Zm-1-3a2 2 0 0 1 2-2h1v1a2 2 0 0 1-2 2h-1Zm-14 8a2 2 0 0 1 2-2h1v1a2 2 0 0 1-2 2h-1Zm-2 1H8a4.005 4.005 0 0 1-4-4v-1h1a4.005 4.005 0 0 1 4 4Zm14-8h-1a4.005 4.005 0 0 1-4-4V6h1a4.005 4.005 0 0 1 4 4Z"/>
  </symbol>

  <symbol id="vision_2" viewBox="0 0 24 24">
<path fill="currentColor" d="M6.5 2q1.529 0 2.515 1.484Q10 4.967 10 7q0 1.16-.337 2.344q-.338 1.185-.71 2.025L4.58 12.43q-.721-1.167-1.15-2.493T3 7q0-2.152.996-3.576T6.5 2m1.375 15q-1.313 0-2.09-1.035Q5.01 14.929 5 13.342l4.162-.992q.296.502.567 1.107T10 14.675q0 1.002-.599 1.664T7.875 17M17.5 7q1.508 0 2.504 1.424T21 12q0 1.667-.467 3.013t-1.227 2.57l-4.298-1.29q-.352-.841-.68-1.997Q14 13.141 14 12q0-2.033.986-3.516Q15.97 7 17.5 7m-1.375 15q-.927 0-1.526-.662T14 19.676q0-.633.29-1.257t.587-1.145l4.117 1.262q-.048 1.47-.821 2.468Q17.4 22 16.125 22"/>
  </symbol>

  <symbol id="vision_3" viewBox="0 0 24 24">
<g fill="none" stroke="currentColor" stroke-linecap="round" stroke-linejoin="round" stroke-width="1.2">
<path d="m18 20l3.824-3.824a.6.6 0 0 0 .176-.424V10.5A1.5 1.5 0 0 0 20.5 9v0a1.5 1.5 0 0 0-1.5 1.5V15"/><path d="m18 16l.858-.858a.48.48 0 0 0 .142-.343v0a.49.49 0 0 0-.268-.433l-.443-.221a2 2 0 0 0-2.308.374l-.895.895a2 2 0 0 0-.586 1.414V20M6 20l-3.824-3.824A.6.6 0 0 1 2 15.752V10.5A1.5 1.5 0 0 1 3.5 9v0A1.5 1.5 0 0 1 5 10.5V15"/><path d="m6 16l-.858-.858A.5.5 0 0 1 5 14.799v0c0-.183.104-.35.268-.433l.443-.221a2 2 0 0 1 2.308.374l.895.895a2 2 0 0 1 .586 1.414V20m4.167-8h-3.334V9.667H8V6.333h2.333V4h3.334v2.333H16v3.334h-2.333z"/>
</g>
  </symbol>

  <symbol id="vision_4" viewBox="0 0 32 32">
<path fill="currentColor" d="M15 3v2h-2v2h2v2.563l-3.719 3.718l-.281.313v3.812l-6.5 3.719l1 1.75l1.5-.844V29h8v-4c0-.555.445-1 1-1s1 .445 1 1v4h8v-6.969l1.5.844l1-1.75l-6.5-3.719v-3.812l-.281-.313L17 9.562V7h2V5h-2V3zm1 8.438l3 3v4.156l.5.281l3.5 2V27h-4v-2c0-1.645-1.355-3-3-3s-3 1.355-3 3v2H9v-6.125l3.5-2l.5-.281v-4.157zM16 15c-.55 0-1 .45-1 1v3h2v-3c0-.55-.45-1-1-1"/>
  </symbol>
</svg>
