<?xml version="1.0" encoding="UTF-8" standalone="no"?>
<!-- Uploaded to: SVG Repo, www.svgrepo.com, Generator: SVG Repo Mixer Tools -->

<svg
   fill="#000000"
   height="800"
   width="653.61584"
   version="1.1"
   id="Layer_1"
   viewBox="0 0 409.59899 501.333"
   xml:space="preserve"
   xmlns="http://www.w3.org/2000/svg"
   xmlns:svg="http://www.w3.org/2000/svg"><defs
   id="defs2" />
<g
   id="g2"
   transform="translate(-45.867001)">
	<g
   id="g1">
		<path
   d="M 434.133,309.333 H 390.4 V 214.4 c 0,-6.4 -3.2,-12.8 -8.533,-17.067 L 272,117.333 v -38.4 h 23.467 c 11.733,0 21.333,-9.6 21.333,-21.333 0,-11.733 -9.6,-21.333 -21.333,-21.333 H 272 V 21.333 C 272,9.6 262.4,0 250.667,0 238.934,0 229.334,9.6 229.334,21.333 V 36.266 H 204.8 c -11.733,0 -21.333,9.6 -21.333,21.333 0,11.733 9.6,21.333 21.333,21.333 h 24.533 v 40.533 l -109.867,76.8 c -5.333,4.267 -8.533,10.667 -8.533,17.067 v 94.933 H 67.2 c -11.733,0 -21.333,9.6 -21.333,21.333 V 480 c 0,11.733 9.6,21.333 21.333,21.333 h 366.933 c 11.733,0 20.267,-9.6 21.333,-20.267 v -150.4 c 0,-11.733 -9.6,-21.333 -21.333,-21.333 z m -208,150.4 c 0,-28.8 0,-71.467 0,-71.467 0,-13.867 10.667,-24.533 24.533,-24.533 13.867,0 24.533,10.667 24.533,24.533 v 71.467 z m 187.733,0 h -98.133 v -71.467 c 0,-36.267 -29.867,-66.133 -66.133,-66.133 -36.267,0 -66.133,29.867 -66.133,66.133 v 71.467 H 88.532 v -108.8 h 44.8 c 11.733,0 21.333,-9.6 21.333,-21.333 V 225.067 l 98.133,-70.4 96,70.4 V 329.6 c 0,11.733 9.6,21.333 21.333,21.333 h 43.733 v 108.8 z"
   id="path1" />
	</g>
</g>
</svg>
