<?xml version="1.0" encoding="UTF-8"?>
<svg version="1.1" xmlns="http://www.w3.org/2000/svg" width="512" height="512">
<path d="M0 0 C1.52243528 -0.00417954 3.04486743 -0.00966045 4.56729388 -0.01631981 C8.72476875 -0.03071083 12.88204431 -0.02654975 17.0395298 -0.019153 C21.53305522 -0.01440809 26.02653834 -0.02694256 30.52005005 -0.03717041 C39.31142951 -0.05433538 48.10273744 -0.05520355 56.89412931 -0.04995751 C64.03864678 -0.04591182 71.18314314 -0.04736409 78.32765961 -0.05270576 C79.34548109 -0.05345419 80.36330258 -0.05420261 81.41196714 -0.05497371 C83.47976616 -0.05650521 85.54756516 -0.05804356 87.61536416 -0.05958868 C106.98894005 -0.07330431 126.3624755 -0.06788165 145.73605046 -0.05640347 C163.46187783 -0.04646262 181.18760095 -0.05942814 198.91341224 -0.08333766 C217.12169496 -0.1077128 235.32992909 -0.11734101 253.5382278 -0.11068493 C263.75805238 -0.10719041 273.9777967 -0.1094407 284.19760895 -0.12693596 C292.89319242 -0.1416377 301.58863904 -0.14231947 310.28421977 -0.12486505 C314.72058292 -0.11633772 319.15670136 -0.11424789 323.59305191 -0.1295166 C327.65420143 -0.14332119 331.71489558 -0.13865547 335.77601847 -0.11927737 C337.24484756 -0.11550415 338.71371277 -0.11847731 340.18250981 -0.12888902 C353.8253304 -0.21871985 353.8253304 -0.21871985 359.75360107 4.38768005 C364.80072962 10.17246585 364.90212981 17.18346741 364.88502884 24.47411728 C364.88708147 25.2876095 364.88913411 26.10110172 364.89124894 26.93924522 C364.89692216 29.67652754 364.89546129 32.41375959 364.89404297 35.15104675 C364.89662641 37.12885256 364.89963952 39.10665784 364.90304637 41.0844624 C364.91112194 46.52854817 364.91290625 51.97262076 364.91364384 57.41671181 C364.9154934 63.28461181 364.92304021 69.15250496 364.92977905 75.020401 C364.94407507 88.52433406 364.94988924 102.02826531 364.954471 115.53220453 C364.95680723 122.20551837 364.9604099 128.87883146 364.96416637 135.55214463 C364.97700101 158.39633306 364.98772065 181.24052102 364.99116898 204.08471298 C364.99139061 205.51856524 364.99161239 206.9524175 364.99183433 208.38626976 C364.99205497 209.82357825 364.99227545 211.26088673 364.99249578 212.69819522 C364.99293833 215.58166933 364.99338544 218.46514344 364.99383545 221.34861755 C364.99399954 222.4210174 364.99399954 222.4210174 364.99416694 223.51508189 C364.99779801 246.69964156 365.01372039 269.88416998 365.03702581 293.06871768 C365.0616218 317.58195244 365.07534169 342.09516934 365.07653689 366.6084168 C365.07670835 369.29931593 365.07692378 371.99021506 365.07717133 374.6811142 C365.07722709 375.34368712 365.07728286 376.00626004 365.07734032 376.68891093 C365.07841967 386.69091917 365.08778208 396.69289498 365.10135651 406.69489288 C365.11674223 418.07168812 365.12188695 429.44842977 365.1136184 440.82523343 C365.10970661 446.63083745 365.11066743 452.43633349 365.12467575 458.24192429 C365.13738259 463.5566736 365.13624539 468.87123345 365.12408504 474.18598238 C365.12212248 476.10859317 365.12523219 478.03121723 365.1339294 479.95380935 C365.14500949 482.56872851 365.13754191 485.18297755 365.12553787 487.79787827 C365.13313307 488.54289172 365.14072826 489.28790517 365.14855361 490.05549479 C365.081414 496.83828568 363.70112572 503.04066317 359.31610107 508.32518005 C354.95890184 511.83219407 352.17410448 512.63780708 346.55332375 512.64494896 C345.27210376 512.65139785 343.99088378 512.65784674 342.67083895 512.66449106 C341.24592145 512.66154864 339.82100434 512.65841319 338.39608765 512.65510559 C336.88468428 512.65884103 335.37328284 512.66344213 333.86188447 512.66883624 C329.70214923 512.68109582 325.54249423 512.68080227 321.38274503 512.67844748 C316.89851209 512.67804004 312.41430512 512.6890719 307.93008423 512.69856262 C299.14009084 512.71519221 290.35012428 512.72067314 281.56011648 512.72178738 C274.41215807 512.72273738 267.26420851 512.72684529 260.1162529 512.73318863 C239.84658982 512.75081009 219.57694795 512.76002664 199.30727716 512.75852768 C198.21400253 512.75844777 197.1207279 512.75836786 195.99432373 512.75828552 C194.89971185 512.75820376 193.80509996 512.758122 192.67731802 512.75803776 C174.9557781 512.75722567 157.23432334 512.77634162 139.51280804 512.80456226 C121.31262801 512.83331598 103.11248947 512.84710103 84.91228616 512.8453747 C74.69604104 512.84471143 64.47988507 512.8501756 54.26366043 512.8717308 C45.56042888 512.88997583 36.85732683 512.89426307 28.1540844 512.88071196 C23.71689768 512.87419769 19.27995918 512.87400883 14.84279633 512.89141846 C10.77237526 512.90722401 6.70239764 512.90420993 2.6319869 512.88685019 C1.16753127 512.88379654 -0.29695809 512.88735035 -1.76137392 512.89857034 C-20.31707374 513.03120417 -36.46001774 507.55731203 -50.0635376 494.71751404 C-65.77212223 479.19327156 -71.17329715 460.70659187 -71.37503338 439.1442461 C-71.38542431 436.3448922 -71.38330557 433.54564334 -71.38011169 430.74627686 C-71.38198293 429.18076164 -71.38428487 427.61524689 -71.38697702 426.04973286 C-71.39306283 421.7728721 -71.39296524 417.49603098 -71.39178264 413.21916687 C-71.39157782 408.5966494 -71.39710517 403.9741381 -71.40184021 399.35162354 C-71.41012963 390.30457621 -71.41289428 381.25753541 -71.41345259 372.2104846 C-71.41392856 364.85295017 -71.41598734 357.49541789 -71.41915321 350.13788414 C-71.4279551 329.2556625 -71.43257331 308.37344599 -71.43182274 287.49122248 C-71.43178278 286.36658717 -71.43174283 285.24195186 -71.43170166 284.08323669 C-71.43166078 282.95722056 -71.4316199 281.83120444 -71.43157778 280.6710666 C-71.43117144 262.42756191 -71.44073927 244.18407787 -71.45484003 225.94057915 C-71.46922051 207.18646638 -71.47610929 188.43236367 -71.47524625 169.67824525 C-71.47491486 159.15801921 -71.47763651 148.63781482 -71.4884243 138.11759377 C-71.49755132 129.15989832 -71.4996865 120.20223435 -71.49291488 111.24453626 C-71.48966078 106.67952994 -71.48955264 102.11458393 -71.49826813 97.54958344 C-71.50618342 93.3604077 -71.50465092 89.17133958 -71.495984 84.98216631 C-71.49446 83.47683633 -71.49622299 81.97149812 -71.50184407 80.46617786 C-71.58237125 57.34658555 -68.01851714 37.17286576 -51.65264893 19.77049255 C-36.95976768 5.22072378 -20.33476939 -0.09146723 0 0 Z M-28.07843018 44.8759613 C-33.66994903 51.35406332 -36.37271448 58.47249481 -36.36944675 66.95551682 C-36.3714378 68.09558457 -36.37342885 69.23565233 -36.37548023 70.41026759 C-36.37256739 71.66317442 -36.36965455 72.91608125 -36.36665344 74.20695496 C-36.36708944 75.5509675 -36.36796488 76.89497997 -36.36924261 78.23899198 C-36.37148189 81.93547691 -36.367474 85.63193295 -36.36246455 89.3284142 C-36.35815214 93.31338453 -36.35960704 97.29835319 -36.36036682 101.2833252 C-36.36089155 108.1886458 -36.35775004 115.09395697 -36.35212898 121.99927521 C-36.34400713 131.98324596 -36.34139806 141.96721215 -36.34014099 151.95118585 C-36.33795155 168.1489326 -36.33129439 184.34667432 -36.32183838 200.54441833 C-36.31266147 216.28042068 -36.305582 232.01642166 -36.30133057 247.75242615 C-36.30106784 248.72214882 -36.30080512 249.69187149 -36.30053443 250.69097969 C-36.29922941 255.5557203 -36.2979657 260.42046092 -36.29672253 265.28520155 C-36.28635328 305.65269788 -36.26873789 346.02018868 -36.24639893 386.38768005 C-33.25439349 385.39095056 -30.26280727 384.39319981 -27.27374268 383.38768005 C-26.25409424 383.05768005 -25.2344458 382.72768005 -24.18389893 382.38768005 C-23.18229736 382.05768005 -22.1806958 381.72768005 -21.14874268 381.38768005 C-15.60567655 379.96723468 -9.90203133 379.25777735 -4.24639893 378.38768005 C-4.24639893 264.86768005 -4.24639893 151.34768005 -4.24639893 34.38768005 C-14.02493714 34.38768005 -21.09640723 38.16034305 -28.07843018 44.8759613 Z M30.75360107 34.38768005 C30.75360107 147.90768005 30.75360107 261.42768005 30.75360107 378.38768005 C129.42360107 378.38768005 228.09360107 378.38768005 329.75360107 378.38768005 C329.75360107 264.86768005 329.75360107 151.34768005 329.75360107 34.38768005 C231.08360107 34.38768005 132.41360107 34.38768005 30.75360107 34.38768005 Z M-27.99249268 423.2040863 C-34.05827328 430.69177059 -37.02540305 438.72208241 -36.61749268 448.3759613 C-35.37523877 458.45783251 -30.91223692 465.77097696 -23.24639893 472.38768005 C-16.81558699 476.48343876 -11.06724701 478.51353709 -3.45991898 478.51072788 C-1.67666603 478.51371446 -1.67666603 478.51371446 0.14261222 478.51676136 C2.10368238 478.5123921 2.10368238 478.5123921 4.10437012 478.50793457 C5.50612986 478.50837055 6.90788952 478.50924595 8.30964875 478.51052374 C12.16575527 478.51276347 16.02183409 478.50875451 19.87793708 478.50374568 C24.03468815 478.49943391 28.19143762 478.50088812 32.34819031 478.50164795 C39.5514437 478.50217272 46.75468804 478.49903078 53.95793915 478.49341011 C64.37267714 478.48528881 74.78741075 478.48267924 85.20215157 478.48142212 C102.09869841 478.47923259 118.99524044 478.47257519 135.89178467 478.46311951 C152.30682348 478.45394283 168.72186099 478.44686324 185.13690186 478.44261169 C186.14844246 478.44234897 187.15998307 478.44208625 188.20217642 478.44181556 C193.27669403 478.44051054 198.35121165 478.43924683 203.42572927 478.43800366 C245.53502416 478.42763414 287.64431012 478.40919749 329.75360107 478.38768005 C329.75360107 456.60768005 329.75360107 434.82768005 329.75360107 412.38768005 C287.28083825 412.32151782 244.80812411 412.26613525 202.33532448 412.23448407 C197.31866268 412.23073204 192.30200099 412.22684906 187.28533936 412.22288513 C185.78727702 412.22170473 185.78727702 412.22170473 184.2589508 412.22050049 C168.09749115 412.20745396 151.93606358 412.18380425 135.77462295 412.15622167 C119.18598496 412.12814655 102.59736376 412.11149934 86.00870299 412.10541457 C75.77630446 412.1013025 65.5439966 412.08832449 55.31162599 412.06393065 C48.29065314 412.04804747 41.26972704 412.04328554 34.24873754 412.04717592 C30.20070611 412.04909345 26.15283293 412.04619693 22.10482979 412.03006363 C18.39216985 412.01537555 14.67977335 412.01478485 10.96710083 412.02498337 C9.00157447 412.02683454 7.03605083 412.01397591 5.07057023 412.00043613 C-7.40771451 412.06302659 -19.02333754 413.87375714 -27.99249268 423.2040863 Z " fill="#000000" transform="translate(109.24639892578125,-0.3876800537109375)"/>
<path d="M0 0 C0.6803833 -0.0049649 1.3607666 -0.00992981 2.06176758 -0.01504517 C4.30119864 -0.02958846 6.54055887 -0.03645564 8.7800293 -0.04199219 C9.93314134 -0.04623325 9.93314134 -0.04623325 11.10954857 -0.05056 C15.1776908 -0.06552107 19.24579784 -0.07476996 23.31396484 -0.07910156 C27.5001214 -0.08458162 31.68595195 -0.10860847 35.87200642 -0.13707352 C39.1055137 -0.1557668 42.33894349 -0.16090904 45.57250023 -0.16243744 C47.11495941 -0.16544941 48.65741769 -0.17342837 50.19982338 -0.18662262 C67.86398337 -0.32694396 67.86398337 -0.32694396 74.1003418 4.87988281 C74.55538086 5.46769531 75.01041992 6.05550781 75.47924805 6.66113281 C75.95233398 7.24894531 76.42541992 7.83675781 76.9128418 8.44238281 C79.60635442 12.54323248 79.16998624 16.84411013 79.1394043 21.54785156 C79.13728188 22.77336479 79.13728188 22.77336479 79.13511658 24.02363586 C79.12952099 26.63200549 79.11696933 29.24028915 79.10424805 31.84863281 C79.09923247 33.61751178 79.09466967 35.3863921 79.09057617 37.15527344 C79.07955301 41.490593 79.06229142 45.82584833 79.04174805 50.16113281 C80.02457764 50.14542236 81.00740723 50.12971191 82.02001953 50.11352539 C85.7045048 50.05877698 89.38895493 50.0246214 93.07373047 49.99633789 C94.66135731 49.98135268 96.24894347 49.96095735 97.83642578 49.93481445 C117.59648618 49.61780814 117.59648618 49.61780814 124.19799805 54.87988281 C124.64143555 55.46769531 125.08487305 56.05550781 125.54174805 56.66113281 C126.00581055 57.24894531 126.46987305 57.83675781 126.94799805 58.44238281 C129.37539746 62.25686761 129.19583958 66.03402136 129.20288086 70.38305664 C129.20784576 71.11512833 129.21281067 71.84720001 129.21792603 72.60145569 C129.23253237 75.02370138 129.2393474 77.44588156 129.24487305 79.86816406 C129.25062614 81.55344138 129.25638386 83.23871868 129.262146 84.92399597 C129.2726519 88.45885523 129.27849712 91.99369178 129.28198242 95.52856445 C129.28746362 100.05126582 129.31148526 104.5736656 129.33995438 109.09627247 C129.35860746 112.57847461 129.36378779 116.06060453 129.3653183 119.5428524 C129.36833977 121.20977106 129.37635124 122.87668861 129.38950348 124.54355812 C129.40661876 126.8796117 129.40467058 129.214934 129.39819336 131.55102539 C129.41201553 132.5775824 129.41201553 132.5775824 129.42611694 133.62487793 C129.37324051 139.73354043 127.58817058 143.57874697 123.35424805 147.91113281 C117.7872771 152.19805462 110.81745608 152.45921998 104.04174805 152.35644531 C103.32059814 152.35361542 102.59944824 152.35078552 101.85644531 152.34786987 C99.58470058 152.33679977 97.31337077 152.31172176 95.04174805 152.28613281 C93.48836838 152.27608592 91.93498245 152.26696308 90.3815918 152.25878906 C86.60148742 152.23690392 82.82168773 152.20246795 79.04174805 152.16113281 C79.04451343 152.74220574 79.0472788 153.32327868 79.05012798 153.92195988 C79.11645659 168.07784367 79.16606202 182.23370409 79.19718456 196.38971043 C79.21263626 203.23553113 79.2336931 210.08124794 79.26806641 216.92700195 C79.3012254 223.53408002 79.31860401 230.14107855 79.32637978 236.74824333 C79.33192086 239.26840857 79.3427412 241.78856793 79.35893822 244.30868721 C79.3807294 247.83979153 79.38371418 251.37045053 79.38232422 254.90161133 C79.39311005 255.94242859 79.40389587 256.98324585 79.41500854 258.05560303 C79.38364334 265.42412806 78.62299128 270.45983176 73.35424805 275.97363281 C65.29549765 281.29544911 55.99864447 280.47206059 46.7019043 280.46191406 C45.21032087 280.46580855 43.71873853 280.47014475 42.22715759 280.47489929 C39.11136265 280.48233066 35.99568108 280.48209254 32.87988281 280.47680664 C28.90798412 280.471013 24.93655191 280.48795518 20.96473026 280.51115131 C17.88729691 280.52595727 14.80997419 280.52675113 11.73251152 280.52364159 C10.26903802 280.52415125 8.80555774 280.52932164 7.34211922 280.53945351 C-10.58337148 280.64835638 -10.58337148 280.64835638 -17.11450195 275.44238281 C-17.55793945 274.85457031 -18.00137695 274.26675781 -18.45825195 273.66113281 C-18.92231445 273.07332031 -19.38637695 272.48550781 -19.86450195 271.87988281 C-21.86503467 268.73618854 -22.08245555 266.05582838 -22.07850647 262.43452454 C-22.07988113 261.46277283 -22.0812558 260.49102112 -22.08267212 259.48982239 C-22.07727921 257.89299873 -22.07727921 257.89299873 -22.07177734 256.26391602 C-22.07192337 255.14181732 -22.0720694 254.01971863 -22.07221985 252.86361694 C-22.07152193 249.14636314 -22.06373513 245.42915914 -22.0559082 241.71191406 C-22.0540436 239.13787361 -22.05261989 236.5638328 -22.05162048 233.98979187 C-22.04818953 227.90187753 -22.04030414 221.81398382 -22.03027099 215.72607726 C-22.01909617 208.79506588 -22.01359595 201.86405364 -22.00857556 194.93303549 C-21.99812117 180.67572496 -21.98053025 166.41842952 -21.95825195 152.16113281 C-23.43249634 152.18469849 -23.43249634 152.18469849 -24.93652344 152.20874023 C-28.62100871 152.26348864 -32.30545884 152.29764423 -35.99023438 152.32592773 C-37.57786121 152.34091295 -39.16544738 152.36130827 -40.75292969 152.38745117 C-60.51299009 152.70445749 -60.51299009 152.70445749 -67.11450195 147.44238281 C-67.55793945 146.85457031 -68.00137695 146.26675781 -68.45825195 145.66113281 C-68.92231445 145.07332031 -69.38637695 144.48550781 -69.86450195 143.87988281 C-72.3026926 140.04844036 -72.11842675 136.23276539 -72.13525391 131.86328125 C-72.1418251 131.12306229 -72.1483963 130.38284332 -72.15516663 129.62019348 C-72.17487772 127.17029719 -72.186558 124.72046218 -72.1965332 122.27050781 C-72.20060873 121.43248878 -72.20468426 120.59446976 -72.20888329 119.73105621 C-72.22973582 115.29450223 -72.24404043 110.85797909 -72.25341797 106.42138672 C-72.264474 101.84712989 -72.29886668 97.27336064 -72.33858967 92.69927597 C-72.36478098 89.17499916 -72.37311208 85.65083804 -72.37669945 82.12647247 C-72.38155979 80.44082602 -72.39315807 78.75518455 -72.41173744 77.06963348 C-72.43618086 74.70488772 -72.43515485 72.34139687 -72.42822266 69.9765625 C-72.44743774 68.9413723 -72.44743774 68.9413723 -72.46704102 67.88526917 C-72.40990695 62.51089652 -70.8750696 59.51368838 -67.95825195 55.16113281 C-62.29341041 50.31620255 -56.02406174 50.01419644 -48.91137695 50.06347656 C-47.75457428 50.06559898 -47.75457428 50.06559898 -46.57440186 50.06776428 C-44.11897857 50.07334748 -41.66364753 50.08589686 -39.20825195 50.09863281 C-37.54028452 50.10364999 -35.87231566 50.10821251 -34.2043457 50.11230469 C-30.12227908 50.1233114 -26.04028114 50.14056445 -21.95825195 50.16113281 C-21.9739624 49.07171387 -21.98967285 47.98229492 -22.00585938 46.85986328 C-22.06034173 42.80085707 -22.09466834 38.74188291 -22.12304688 34.68261719 C-22.13809191 32.92898108 -22.15853299 31.17538234 -22.18457031 29.421875 C-22.22114316 26.89476272 -22.23802116 24.36814985 -22.2512207 21.84082031 C-22.26670456 21.06245819 -22.28218842 20.28409607 -22.29814148 19.48214722 C-22.29987812 13.80825872 -21.18135711 9.67397916 -17.30981445 5.29785156 C-16.74004883 4.81960937 -16.1702832 4.34136719 -15.58325195 3.84863281 C-15.01864258 3.3575 -14.4540332 2.86636719 -13.87231445 2.36035156 C-9.67469314 -0.26958669 -4.81549088 0.02681744 0 0 Z M12.04174805 35.16113281 C12.00436523 37.76246094 11.96698242 40.36378906 11.9284668 43.04394531 C11.88219549 45.57592968 11.83098232 48.10776949 11.77929688 50.63964844 C11.74613584 52.39313908 11.71807662 54.14673419 11.6953125 55.90039062 C11.66160335 58.4278598 11.60928113 60.95437919 11.5534668 63.48144531 C11.54388191 64.64898849 11.54388191 64.64898849 11.53410339 65.84011841 C11.40426747 70.69606774 10.48978999 73.85456575 8.04174805 78.16113281 C8.04174805 78.82113281 8.04174805 79.48113281 8.04174805 80.16113281 C1.98324959 83.42340121 -3.58243217 84.47080136 -10.41918945 84.57519531 C-11.20975739 84.59456146 -12.00032532 84.61392761 -12.81484985 84.63388062 C-15.32087678 84.69329334 -17.8269506 84.73990708 -20.33325195 84.78613281 C-22.04030238 84.82434794 -23.74733426 84.8634017 -25.4543457 84.90332031 C-29.62221368 85.00053006 -33.78990245 85.08040025 -37.95825195 85.16113281 C-37.95825195 95.72113281 -37.95825195 106.28113281 -37.95825195 117.16113281 C-35.38012695 117.18691406 -32.80200195 117.21269531 -30.14575195 117.23925781 C-27.62692721 117.27775768 -25.1083017 117.32289207 -22.58959961 117.36865234 C-20.84978881 117.39673984 -19.10985331 117.41801475 -17.36987305 117.43212891 C-14.85702225 117.45372934 -12.34565162 117.50046267 -9.83325195 117.55175781 C-8.68119263 117.55360077 -8.68119263 117.55360077 -7.50585938 117.55548096 C-1.93400879 117.7039201 2.53187439 118.77720247 7.04174805 122.16113281 C11.56932431 128.06811192 11.62206197 134.46579768 11.58764648 141.62597656 C11.59798416 142.74880539 11.60832184 143.87163422 11.61897278 145.02848816 C11.64833572 148.7186839 11.64989864 152.40832957 11.65112305 156.09863281 C11.66610899 158.66553794 11.682837 161.23243345 11.70123291 163.79931641 C11.74041775 169.85166103 11.76210749 175.90383381 11.7752068 181.95628357 C11.79111438 188.85123434 11.8295456 195.74600325 11.86980009 202.64084816 C11.95204819 216.81423522 12.00326176 230.98756097 12.04174805 245.16113281 C22.93174805 245.16113281 33.82174805 245.16113281 45.04174805 245.16113281 C45.05109375 241.68380615 45.06043945 238.20647949 45.07006836 234.6237793 C45.10384105 223.1325011 45.15919118 211.64138316 45.22565079 200.15025234 C45.26541745 193.18341638 45.29782189 186.21669299 45.31274414 179.24975586 C45.32716685 172.5257861 45.36230496 165.80221554 45.41005707 159.07838631 C45.42489006 156.51361181 45.43279015 153.94878751 45.4336319 151.38397026 C45.43599738 147.79035146 45.46304605 144.19770011 45.49584961 140.60424805 C45.48830406 139.01496994 45.48830406 139.01496994 45.48060608 137.39358521 C45.5691349 131.12168797 46.24594938 127.23196148 50.04174805 122.16113281 C54.92967743 118.05223757 60.76522215 117.56159845 66.91674805 117.55175781 C67.72668213 117.53522156 68.53661621 117.5186853 69.37109375 117.50164795 C71.92805833 117.45352107 74.48442988 117.43187695 77.04174805 117.41113281 C78.78787107 117.38294341 80.53396689 117.35301187 82.2800293 117.32128906 C86.53419903 117.24452817 90.78655256 117.20368477 95.04174805 117.16113281 C95.04174805 106.60113281 95.04174805 96.04113281 95.04174805 85.16113281 C92.52420898 85.12375 90.00666992 85.08636719 87.4128418 85.04785156 C84.95694617 85.00155352 82.50119798 84.95035015 80.04541016 84.89868164 C78.34726019 84.86556198 76.64900356 84.83749021 74.95068359 84.81469727 C72.50011017 84.78091113 70.05050274 84.72858643 67.6003418 84.67285156 C66.84901474 84.66646164 66.09768768 84.66007172 65.32359314 84.65348816 C58.84493924 84.47543173 54.16758833 83.00968958 49.16674805 78.66113281 C45.48126216 74.32526707 45.83659578 69.98585724 45.7253418 64.55566406 C45.7045607 63.7164592 45.6837796 62.87725433 45.66236877 62.01261902 C45.59700786 59.33303987 45.53805091 56.65336312 45.47924805 53.97363281 C45.43605002 52.15656544 45.39243532 50.33950793 45.34838867 48.52246094 C45.24055637 44.06878347 45.14138309 39.61503143 45.04174805 35.16113281 C34.15174805 35.16113281 23.26174805 35.16113281 12.04174805 35.16113281 Z " fill="#000000" transform="translate(260.958251953125,65.8388671875)"/>
</svg>
